<?xml version="1.0" encoding="UTF-8"?><svg id="Layer_1" xmlns="http://www.w3.org/2000/svg" viewBox="0 0 500 500"><defs><style>.cls-1{fill:#6d86bd;}.cls-1,.cls-2,.cls-3,.cls-4,.cls-5{stroke-width:0px;}.cls-2{fill:#0d1b3e;}.cls-3{fill:#fff;}.cls-4{fill:#eb666f;}.cls-5{fill:#00b4bd;}</style></defs><path class="cls-2" d="m403.04,241.39c0,4.01-.1,8.03-.53,11.94-1.79,25.81-9.62,49.79-22.23,70.86-5.08,8.46-10.88,16.49-17.42,23.88-29.62,33.74-73.18,55.1-121.61,55.1s-91.89-21.36-121.48-55.1c-6.57-7.4-12.37-15.43-17.45-23.88-12.61-21.06-20.4-45.05-22.23-70.86-.4-3.91-.53-7.93-.53-11.94s.13-8.03.53-11.94c1.86-25.74,9.75-49.79,22.29-70.76,5.04-8.53,10.88-16.52,17.38-23.92,29.59-33.74,73.01-55.07,121.48-55.07s91.99,21.36,121.61,55.1c6.53,7.4,12.34,15.43,17.42,23.88,12.61,21.06,20.43,45.05,22.23,70.76.43,3.91.53,7.93.53,11.94Z"/><path class="cls-3" d="m213.12,146.74c0,3.32-1.33,6.3-3.48,8.46-2.19,2.16-5.17,3.48-8.46,3.48h-98.79c5.04-8.53,10.88-16.52,17.38-23.92h81.41c6.6,0,11.94,5.34,11.94,11.98Z"/><rect class="cls-4" x="181" y="229.46" width="97.35" height="23.92" rx="11.96" ry="11.96"/><path class="cls-5" d="m290.95,336.13h0c0,6.6-5.35,11.95-11.95,11.95H119.76c-6.56-7.4-12.37-15.44-17.45-23.9h176.68c6.6,0,11.95,5.35,11.95,11.95Z"/><path class="cls-3" d="m140.37,241.39h0c0,6.6-5.35,11.95-11.95,11.95h-48.31c-.42-3.91-.53-7.93-.53-11.95s.11-8.04.53-11.95h48.31c6.6,0,11.95,5.35,11.95,11.95Z"/><path class="cls-1" d="m380.3,158.7h-113.99c-6.6,0-11.95-5.35-11.95-11.95h0c0-6.6,5.35-11.95,11.95-11.95h96.54c6.56,7.4,12.37,15.44,17.45,23.9Z"/><path class="cls-3" d="m380.3,324.18c-5.08,8.46-10.89,16.49-17.45,23.9h-20.83c-6.6,0-11.95-5.35-11.95-11.95h0c0-6.6,5.35-11.95,11.95-11.95h38.28Z"/><path class="cls-2" d="m465.38,418.83l-50.14-50.13c4.01-5.44,7.79-11.14,11.34-17.05,17.35-29.03,27.33-60.87,29.62-94.11.5-4.78.73-9.85.73-16.49s-.23-11.71-.7-15.89c-2.32-33.77-12.34-65.58-29.69-94.58-6.9-11.51-14.73-22.26-23.25-31.88-41.04-46.77-100.22-73.58-162.38-73.58-112.62,0-207.17,87.84-215.19,199.4-.5,4.81-.73,9.89-.73,16.52s.23,11.71.7,15.89c2.36,33.84,12.34,65.72,29.69,94.71,6.93,11.54,14.76,22.29,23.25,31.88,41.07,46.74,100.18,73.58,162.28,73.58,46.41,0,91.16-14.96,127.92-41.96,0,0,0,0,0,0l50.12,50.12c12.82,12.82,33.6,12.82,46.42,0,12.82-12.82,12.82-33.6,0-46.42Zm-362.1-57c-7.23-8.16-13.87-17.25-19.74-27.04-14.66-24.55-23.12-51.48-25.18-80.78-.36-3.55-.56-7.56-.56-12.97s.2-9.42.63-13.57c6.83-95.07,87.01-169.55,182.48-169.55,52.71,0,102.9,22.76,137.77,62.46,7.23,8.16,13.87,17.28,19.7,27.04,14.7,24.51,23.12,51.45,25.18,80.61.4,3.58.56,7.6.56,13s-.17,9.42-.6,13.6c-2.02,28.63-10.45,55.6-25.11,80.11-5.87,9.79-12.51,18.88-19.8,27.1-34.8,39.68-84.99,62.4-137.7,62.4s-102.8-22.72-137.63-62.43Z"/><path class="cls-3" d="m317.31,291.36h0c-3.95-3.82-4.06-10.12-.25-14.07l34.38-35.62-35.58-34.42c-3.95-3.82-4.06-10.12-.23-14.07h0c3.82-3.95,10.12-4.06,14.07-.23l45.11,43.63c2.63,2.55,2.7,6.74.16,9.38l-43.59,45.16c-3.82,3.96-10.12,4.07-14.07.25Z"/></svg>